<svg xmlns="http://www.w3.org/2000/svg" viewBox="0 0 240 180" role="img" aria-hidden="true">
  <rect width="240" height="180" fill="#FFF3E8"/>
  <circle cx="120" cy="96" r="66" fill="#FFE2C6"/>
  <g fill="#FFC94D">
    <rect x="86" y="48" width="14" height="70" rx="6" transform="rotate(-12 93 83)"/>
    <rect x="112" y="40" width="14" height="80" rx="6"/>
    <rect x="138" y="48" width="14" height="70" rx="6" transform="rotate(12 145 83)"/>
    <rect x="99" y="56" width="14" height="66" rx="6" transform="rotate(-5 106 89)"/>
    <rect x="127" y="56" width="14" height="66" rx="6" transform="rotate(5 134 89)"/>
  </g>
  <path d="M80 104h80l-10 42a8 8 0 0 1-8 7H98a8 8 0 0 1-8-7z" fill="#E03E2F"/>
  <rect x="80" y="98" width="80" height="16" rx="6" fill="#C23024"/>
</svg>
